# xmcd
#
# Track frame offsets:
#	150
#	18008
#	34502
#	54327
#	69697
#	85391
#	100917
#	118164
#	136819
#	151374
#	167592
#	184326
#	203475
#	222253
#	239896
#	258295
#	273979
#
# Disc length: 3921 seconds
#
# Revision: 1
# Processed by: cddbd v1.5.2PL0 Copyright (c) Steve Scherf et al.
# Submitted via: audiograbber 1.83.01
#
DISCID=eb0f4f11
DTITLE=Manie Jackson - Liefde en Genade
DYEAR=2011
DGENRE=Afrikaans
TTITLE0=Loop Net Langs My Spore
TTITLE1=Vir Pa
TTITLE2=Net Jy
TTITLE3=Dis Liefde
TTITLE4=Kom Saam Met My
TTITLE5=Liefde En Genade
TTITLE6=Kan Ons Dan Nie
TTITLE7=Louisa
TTITLE8=Ek Wil Altyd By Jou Bly
TTITLE9=Haar Liefde
TTITLE10=In Die Hemel Is 'n Engel Weg
TTITLE11=Net 'n Ma
TTITLE12=Vra My Nie
TTITLE13=Waltzing Maria (Duet Met Monique)
TTITLE14=As Ek Jou Net Weer Kan Hê
TTITLE15=Vier Klippe
TTITLE16=Gebed Vir 'n Kind
EXTD=
EXTT0=
EXTT1=
EXTT2=
EXTT3=
EXTT4=
EXTT5=
EXTT6=
EXTT7=
EXTT8=
EXTT9=
EXTT10=
EXTT11=
EXTT12=
EXTT13=
EXTT14=
EXTT15=
EXTT16=
PLAYORDER=
